<svg width="341" height="341" viewBox="0 0 341 341" fill="none" xmlns="http://www.w3.org/2000/svg">
<path d="M169 28C172.628 29.2175 172.828 29.9692 174.609 33.2498C175.109 34.1565 175.609 35.0631 176.123 35.9972C176.66 36.9917 177.197 37.9862 177.75 39.0109C178.919 41.1365 180.09 43.2613 181.262 45.3854C181.873 46.4984 182.485 47.6113 183.115 48.758C186.203 54.3323 189.383 59.8522 192.562 65.3742C197.062 73.2066 201.548 81.0461 206 88.906C212.318 100.057 218.694 111.173 225.072 122.289C226.982 125.62 228.89 128.952 230.797 132.285C238.606 145.931 246.458 159.55 254.352 173.146C257.237 178.118 260.118 183.093 263 188.067C262.34 188.399 261.68 188.732 261 189.074C258.871 187.994 258.871 187.994 256.223 186.294C255.244 185.671 254.266 185.049 253.258 184.408C252.203 183.726 251.149 183.044 250.062 182.341C248.976 181.648 247.889 180.954 246.77 180.24C244.55 178.822 242.333 177.401 240.118 175.977C236.666 173.758 233.204 171.555 229.74 169.355C228.235 168.4 226.731 167.443 225.227 166.485C217.818 161.766 210.381 157.093 202.942 152.422C198.104 149.383 193.273 146.334 188.461 143.253C187.169 142.426 187.169 142.426 185.852 141.583C184.254 140.56 182.657 139.533 181.062 138.504C179.669 137.611 178.265 136.733 176.851 135.873C175 134.711 175 134.711 172.094 132.501C168.326 131.515 167.724 132.039 164.445 133.949C162.656 135.144 160.884 136.365 159.125 137.606C157.149 138.936 155.173 140.266 153.195 141.593C152.175 142.288 151.154 142.984 150.103 143.7C145.143 147.033 140.071 150.179 135 153.336C127.281 158.174 119.596 163.062 111.938 167.996C100.736 175.206 89.384 182.161 78 189.074C78 185.442 78.9379 184.068 80.7539 180.953C81.6531 179.399 81.6531 179.399 82.5706 177.813C83.2279 176.691 83.8852 175.569 84.5625 174.414C85.246 173.236 85.9289 172.059 86.6111 170.881C88.0311 168.43 89.454 165.981 90.8789 163.533C94.1373 157.928 97.3464 152.295 100.562 146.666C105.327 138.344 110.12 130.041 114.938 121.75C120.013 113.014 125.023 104.242 130 95.4497C135.53 85.6802 141.112 75.9431 146.755 66.2386C149.899 60.8283 153.029 55.41 156.137 49.9786C156.481 49.3763 156.826 48.7741 157.181 48.1536C158.857 45.2242 160.531 42.2937 162.203 39.3624C162.801 38.3159 163.399 37.2695 164.016 36.1913C164.544 35.2644 165.073 34.3374 165.618 33.3823C166.688 31.5531 167.83 29.7664 169 28Z" fill="#F3FFF6"/>
<path d="M294.992 61.4496C297.069 59.63 300.234 59.8346 301.992 61.9642C321.712 85.8539 334.571 114.693 339.142 145.394C343.958 177.746 339.367 210.801 325.916 240.615C312.465 270.43 290.722 295.746 263.281 313.545C235.839 331.344 203.857 340.874 171.149 340.999C138.441 341.123 106.387 331.837 78.8111 314.248C51.2349 296.658 29.3 271.508 15.6225 241.797C1.94513 212.085 -2.89751 179.067 1.67221 146.679C6.00881 115.944 18.6482 87.0078 38.185 62.9686C39.9266 60.8257 43.0902 60.597 45.1812 62.4007L81.0534 93.3438C83.1444 95.1475 83.3676 98.2983 81.6581 100.467C69.2932 116.152 61.2822 134.859 58.4834 154.695C55.4514 176.184 58.6645 198.092 67.7394 217.805C76.8143 237.518 91.3681 254.206 109.665 265.876C127.962 277.547 149.229 283.708 170.931 283.625C192.632 283.543 213.852 277.219 232.06 265.41C250.267 253.601 264.693 236.803 273.618 217.021C282.542 197.239 285.589 175.308 282.393 153.843C279.443 134.028 271.29 115.383 258.806 99.7924C257.08 97.6369 257.279 94.4845 259.356 92.665L294.992 61.4496Z" fill="#FF8888"/>
</svg>
